<svg xmlns="http://www.w3.org/2000/svg" width="96mm" height="60mm" viewBox="0 0 960 600">
  <defs>
    <linearGradient id="forest" x1="0" y1="0" x2="1" y2="1">
      <stop offset="0" stop-color="#0d2a1d"/>
      <stop offset="1" stop-color="#1f4631"/>
    </linearGradient>
    <linearGradient id="orange" x1="0" y1="0" x2="1" y2="1">
      <stop offset="0" stop-color="#f08b33"/>
      <stop offset="1" stop-color="#bf5c1f"/>
    </linearGradient>
    <pattern id="paper" width="34" height="34" patternUnits="userSpaceOnUse">
      <rect width="34" height="34" fill="#fffefd"/>
      <path d="M0 18 C9 15 17 21 34 17" fill="none" stroke="#f0ece4" stroke-width="1" opacity=".24"/>
    </pattern>
    <filter id="shadow" x="-10%" y="-10%" width="120%" height="120%">
      <feDropShadow dx="0" dy="9" stdDeviation="9" flood-color="#07180f" flood-opacity=".28"/>
    </filter>
    <clipPath id="trim">
      <rect x="30" y="30" width="900" height="540"/>
    </clipPath>
    <clipPath id="leftPanel">
      <path d="M30 30 L397 30 L465 292 L398 470 L30 470 Z"/>
    </clipPath>
  </defs>

  <!-- 96 x 60 mm artboard includes 3 mm bleed. Trim size is 90 x 54 mm. -->
  <rect width="960" height="600" fill="#f5f5f2"/>
  <g filter="url(#shadow)">
    <rect x="30" y="30" width="900" height="540" fill="url(#paper)" stroke="#0d2a1d" stroke-width="7"/>
  </g>

  <g clip-path="url(#trim)">
    <path d="M30 30 L397 30 L465 292 L398 470 L30 470 Z" fill="#fffefd"/>
    <path d="M397 30 L410 30 L478 292 L411 470 L398 470 L465 292 Z" fill="url(#forest)"/>
    <path d="M410 30 L414 30 L482 292 L415 470 L411 470 L478 292 Z" fill="#b8672b"/>

    <g clip-path="url(#leftPanel)">
      <image href="assets/reference-contours-top-left-lines.png" x="30" y="30" width="340" height="162" preserveAspectRatio="none" opacity=".7"/>
      <path d="M-15 345 C50 318 97 363 153 333 S246 347 313 314 S411 327 458 290" fill="none" stroke="#c9bda7" stroke-width="1.4" opacity=".55"/>
      <path d="M-18 370 C53 343 102 387 158 358 S253 373 320 338 S417 354 464 317" fill="none" stroke="#c9bda7" stroke-width="1.4" opacity=".55"/>
    </g>

    <g clip-path="url(#leftPanel)">
      <image href="assets/reference-mountains-clean.png" x="30" y="318" width="440" height="158" preserveAspectRatio="none"/>
    </g>

    <g transform="translate(74 86)">
      <image href="assets/company-logo.png" x="0" y="0" width="330" height="250" preserveAspectRatio="xMidYMid meet"/>
    </g>

    <g transform="translate(474 70)" opacity=".42">
      <path d="M170 -70 L170 258 M214 -70 L214 258 M260 -70 L260 258 M304 -70 L304 258 M350 -70 L350 258 M394 -70 L394 258" stroke="#c9bda7" stroke-width="1" stroke-dasharray="8 6"/>
      <path d="M130 -34 L566 -34 M130 10 L566 10 M130 55 L566 55 M130 100 L566 100 M130 145 L566 145 M130 190 L566 190" stroke="#c9bda7" stroke-width="1" stroke-dasharray="8 6"/>
      <g transform="translate(360 55) scale(.84) translate(-360 -55)">
        <circle cx="360" cy="55" r="68" fill="none" stroke="#c9bda7" stroke-width="1.1" stroke-dasharray="7 6"/>
        <circle cx="360" cy="55" r="48" fill="none" stroke="#c9bda7" stroke-width="1.1"/>
        <circle cx="360" cy="55" r="31" fill="none" stroke="#c9bda7" stroke-width=".9"/>
        <path d="M360 -12 L372 44 L428 55 L372 66 L360 122 L348 66 L292 55 L348 44 Z" fill="#c9bda7"/>
        <path d="M360 7 L374 42 L409 21 L388 55 L409 89 L374 68 L360 103 L346 68 L311 89 L332 55 L311 21 L346 42 Z" fill="#fffefd" stroke="#c9bda7" stroke-width="1.1"/>
        <path d="M360 -12 L366 47 L360 55 L354 47 Z M428 55 L368 61 L360 55 L368 49 Z M360 122 L354 63 L360 55 L366 63 Z M292 55 L352 49 L360 55 L352 61 Z" fill="#c9bda7"/>
        <path d="M360 19 L381 55 L360 91 L339 55 Z" fill="#fffefd" stroke="#c9bda7" stroke-width="1"/>
        <path d="M324 55 L360 34 L396 55 L360 76 Z" fill="#fffefd" stroke="#c9bda7" stroke-width="1"/>
        <text x="360" y="-24" text-anchor="middle" font-family="Georgia, serif" font-size="18" fill="#b5a88f">N</text>
        <text x="360" y="148" text-anchor="middle" font-family="Georgia, serif" font-size="18" fill="#b5a88f">S</text>
        <text x="430" y="61" text-anchor="middle" font-family="Georgia, serif" font-size="18" fill="#b5a88f">E</text>
        <text x="290" y="61" text-anchor="middle" font-family="Georgia, serif" font-size="18" fill="#b5a88f">W</text>
      </g>
    </g>

    <g transform="translate(496 166)">
      <text x="0" y="0" transform="scale(.94 1.1)" font-family="Arial Black, Montserrat, Arial, sans-serif" font-size="56" font-weight="800" fill="#102d20" letter-spacing="1">Dawson</text>
      <path d="M0 35 H135 L144 23 L154 35 L164 18 L177 36 L186 27 L195 35 H320" fill="none" stroke="#a45e2a" stroke-width="3"/>
      <text x="0" y="70" font-family="Arial, Microsoft YaHei, sans-serif" font-size="25" font-weight="700" fill="#151816">Outdoor Product Manager</text>

      <g font-family="Arial, Microsoft YaHei, sans-serif" font-size="20" fill="#151816">
        <g transform="translate(0 124)">
          <circle cx="18" cy="-7" r="17" fill="#102d20"/>
          <path d="M12 -14 C18 -20 29 -15 29 -6 C29 4 19 11 10 5 L4 7 L7 0 C4 -6 6 -11 12 -14 Z" fill="none" stroke="#fff" stroke-width="3" stroke-linecap="round"/>
          <text x="48" y="0">Mobile / WhatsApp: +86 155 8898 3078</text>
          <path d="M48 22 H360" stroke="#c9bda7" stroke-width="1" stroke-dasharray="3 3"/>
        </g>
        <g transform="translate(0 168)">
          <circle cx="18" cy="-7" r="17" fill="#102d20"/>
          <rect x="7" y="-17" width="22" height="17" rx="2" fill="none" stroke="#fff" stroke-width="3"/>
          <path d="M8 -16 L18 -7 L29 -16" fill="none" stroke="#fff" stroke-width="3"/>
          <text x="48" y="0">Email: dawson@dawnrisecamp.com</text>
          <path d="M48 22 H360" stroke="#c9bda7" stroke-width="1" stroke-dasharray="3 3"/>
        </g>
        <g transform="translate(0 212)">
          <circle cx="18" cy="-7" r="17" fill="#102d20"/>
          <circle cx="18" cy="-7" r="10" fill="none" stroke="#fff" stroke-width="3"/>
          <path d="M8 -7 H28 M18 -17 C13 -11 13 -3 18 3 M18 -17 C23 -11 23 -3 18 3" fill="none" stroke="#fff" stroke-width="2"/>
          <text x="48" y="0">Web: www.dawnrisecamp.com</text>
          <path d="M48 22 H360" stroke="#c9bda7" stroke-width="1" stroke-dasharray="3 3"/>
        </g>
        <g transform="translate(0 256)">
          <circle cx="18" cy="-7" r="17" fill="#102d20"/>
          <path d="M18 -20 C27 -20 32 -11 28 -3 C25 3 18 10 18 10 C18 10 11 3 8 -3 C4 -11 9 -20 18 -20 Z" fill="#fff"/>
          <circle cx="18" cy="-9" r="4" fill="#102d20"/>
          <text x="48" y="0">Add: Qingdao, Shandong, China</text>
        </g>
      </g>
    </g>

    <image href="assets/reference-bottom-strip-noline.png" x="30" y="470" width="900" height="100" preserveAspectRatio="none"/>
    <image href="assets/reference-bottom-strip-noline.png" x="30" y="481" width="900" height="78" preserveAspectRatio="none"/>
  </g>
</svg>
